<?xml version="1.0" standalone="no"?>
<!DOCTYPE svg PUBLIC "-//W3C//DTD SVG 20010904//EN"
 "http://www.w3.org/TR/2001/REC-SVG-20010904/DTD/svg10.dtd">
<svg version="1.0" xmlns="http://www.w3.org/2000/svg"
 width="601.000000pt" height="601.000000pt" viewBox="0 0 601.000000 601.000000"
 preserveAspectRatio="xMidYMid meet">

<g transform="translate(0.000000,601.000000) scale(0.100000,-0.100000)"
fill="#000000" stroke="none">
<path d="M865 5991 c-11 -5 -32 -10 -46 -10 -14 -1 -55 -10 -90 -22 -320 -105
-555 -368 -614 -689 -13 -66 -15 -4500 -3 -4555 27 -122 85 -253 152 -345 95
-127 266 -256 411 -309 178 -64 51 -61 2331 -61 1411 0 2089 3 2126 11 125 24
156 33 210 60 32 16 63 29 69 29 28 0 181 115 251 188 122 128 192 262 229
437 18 86 19 174 19 2120 0 1272 -4 2024 -10 2015 -13 -21 -33 1 -28 31 2 16
9 23 21 22 18 -1 19 8 13 180 -5 193 -19 265 -70 381 -96 218 -300 402 -529
480 -144 48 -155 49 -882 40 -790 -10 -1952 -11 -2885 -1 -405 5 -663 4 -675
-2z m2383 -566 c459 -65 863 -276 1153 -600 194 -217 306 -411 386 -670 148
-479 113 -953 -101 -1390 -182 -371 -453 -643 -826 -830 -600 -301 -1316 -258
-1872 114 -247 165 -485 428 -609 672 -31 63 -35 74 -19 64 15 -9 0 76 -16 92
-7 7 -15 18 -17 25 -4 10 -7 10 -15 0 -17 -24 -78 147 -113 316 -80 387 -27
811 146 1167 109 226 265 433 442 588 95 83 288 214 394 267 190 96 451 172
659 193 93 10 316 5 408 -8z m-1668 -4065 l0 -60 -165 0 -165 0 0 -70 0 -70
151 0 150 0 -3 -52 -3 -53 -147 -3 -148 -3 0 -69 0 -70 169 0 170 0 7 -46 c3
-25 2 -50 -3 -55 -5 -5 -106 -8 -244 -7 l-234 3 0 303 c0 167 2 306 4 308 2 2
107 4 233 4 l228 0 0 -60z m522 50 c39 -11 130 -68 135 -85 1 -5 -13 -28 -31
-50 -33 -38 -36 -39 -58 -26 -58 36 -100 51 -148 51 -61 0 -106 -18 -142 -56
-36 -39 -48 -74 -48 -143 0 -135 117 -217 254 -177 l56 17 0 85 0 85 63 -3 62
-3 3 -113 3 -112 -46 -29 c-100 -64 -248 -77 -349 -32 -175 77 -241 304 -135
461 36 53 100 104 155 124 46 17 173 20 226 6z m432 -89 c35 -54 68 -101 73
-104 5 -3 40 41 77 99 l68 104 69 0 c38 0 69 -4 69 -9 0 -6 -43 -71 -95 -146
-52 -75 -95 -140 -95 -146 0 -5 44 -74 98 -153 55 -79 102 -148 106 -155 5 -8
-15 -11 -72 -11 l-79 0 -72 111 c-40 62 -75 108 -80 103 -4 -5 -38 -55 -75
-111 l-68 -103 -74 0 c-41 0 -74 3 -74 8 0 4 46 70 101 147 55 77 102 145 105
151 3 6 -38 73 -91 149 -52 76 -95 144 -95 151 0 11 17 14 70 14 l70 0 64 -99z
m1013 87 c6 -10 191 -421 259 -576 l15 -33 -77 3 -76 3 -25 63 -25 63 -142 -3
-141 -3 -29 -62 -30 -63 -68 0 -68 0 25 58 c14 31 76 171 137 310 l112 252 62
0 c39 0 66 -5 71 -12z m696 -144 c74 -38 116 -103 124 -193 12 -136 -73 -259
-192 -277 -55 -8 -95 1 -140 31 l-35 24 0 -109 0 -110 -65 0 -65 0 0 325 0
325 65 0 65 0 0 -32 0 -31 24 22 c54 51 147 61 219 25z m594 -10 c60 -35 94
-97 101 -185 6 -88 -10 -146 -56 -200 -68 -79 -159 -99 -248 -54 -27 14 -50
25 -51 25 -2 0 -3 -47 -3 -105 l0 -106 -62 3 -63 3 0 320 0 320 60 0 c59 0 60
-1 63 -29 l4 -28 23 22 c58 54 153 60 232 14z"/>
<path d="M2835 5194 c-293 -44 -498 -121 -725 -271 -156 -104 -357 -304 -455
-453 -169 -257 -250 -513 -262 -825 -6 -160 5 -263 47 -442 60 -250 159 -444
334 -652 360 -427 927 -641 1481 -560 357 53 652 204 916 468 151 152 227 257
314 436 89 184 134 349 156 573 18 182 -10 428 -67 601 -36 107 -147 345 -184
391 l-20 25 0 -277 c0 -153 -3 -278 -8 -278 -4 0 -30 15 -58 34 l-52 35 -19
-22 c-11 -12 -60 -76 -108 -142 -131 -178 -245 -316 -256 -309 -12 7 -6 16 46
79 88 105 282 375 238 330 -6 -5 -75 -90 -153 -188 -140 -176 -313 -367 -332
-367 -15 0 -143 -112 -140 -123 1 -4 -1 -6 -6 -3 -5 3 -35 -15 -68 -39 -32
-25 -63 -45 -67 -45 -5 0 -5 -5 -1 -12 4 -6 3 -8 -4 -4 -13 8 -84 -33 -76 -45
3 -5 -1 -6 -8 -4 -8 3 -22 -2 -33 -10 -19 -15 -19 -16 5 -5 24 11 24 10 5 -5
-11 -8 -25 -13 -33 -10 -8 3 -10 0 -6 -7 5 -8 2 -9 -10 -5 -10 4 -15 3 -11 -3
3 -5 -25 -25 -62 -43 -122 -61 -247 -106 -397 -142 -127 -30 -163 -35 -270
-35 -197 0 -347 37 -480 117 -91 55 -163 128 -201 203 -34 68 -53 140 -37 140
5 0 12 -18 15 -41 14 -108 121 -233 257 -302 41 -20 120 -49 175 -64 90 -24
118 -27 275 -27 158 0 187 2 295 28 119 28 169 45 277 93 53 23 56 27 46 46
-6 12 -20 28 -30 37 -19 15 -17 17 41 63 39 30 61 54 61 67 0 27 -26 36 -48
18 -20 -17 -99 -62 -124 -71 -33 -12 -18 2 25 24 202 102 458 320 629 535 77
96 182 244 175 244 -3 0 -49 -57 -103 -127 -55 -70 -125 -156 -158 -190 l-58
-63 -39 42 c-22 24 -39 46 -39 50 0 5 -18 8 -39 8 -22 0 -41 5 -43 12 -3 8
-11 3 -20 -12 -96 -160 -92 -149 -95 -244 -3 -66 -8 -95 -20 -108 -25 -28 -33
-22 -33 26 0 45 -6 54 -52 74 -18 7 -28 8 -28 1 0 -5 14 -15 30 -20 28 -10 30
-14 30 -63 0 -48 -12 -76 -32 -76 -4 0 -8 29 -8 65 l0 65 -39 0 -40 0 -3 48
-3 47 -98 50 -98 50 -22 -30 c-12 -16 -39 -50 -61 -74 l-38 -45 5 -80 c3 -59
11 -96 31 -137 24 -51 29 -56 53 -51 24 5 53 -16 53 -39 0 -11 -114 -47 -198
-63 l-72 -14 -37 67 c-20 36 -38 68 -41 71 -2 3 -14 -7 -26 -22 -12 -16 -30
-28 -40 -28 -15 0 -13 6 13 39 30 38 30 39 19 95 l-12 56 -233 0 c-266 0 -255
5 -203 -87 24 -42 40 -57 91 -82 62 -31 63 -31 233 -32 133 -1 162 -3 131 -11
-22 -5 -101 -8 -175 -6 -124 3 -140 6 -192 31 -64 32 -110 81 -134 144 -29 76
-38 73 266 73 154 0 270 4 270 9 0 5 -26 7 -57 5 -65 -6 -110 11 -105 39 2 10
-4 17 -13 17 -8 0 -15 7 -15 16 0 8 -4 12 -10 9 -5 -3 -31 17 -57 44 l-48 50
-120 3 -120 3 -6 90 c-3 50 -6 74 -7 55 -6 -93 -23 -136 -37 -91 -3 10 -13 22
-23 25 -31 12 -72 37 -72 45 0 4 -10 12 -22 18 -35 16 -50 101 -57 313 l-6
185 -36 3 -37 3 74 107 c41 59 86 121 99 137 l25 30 18 -25 c9 -13 54 -76 100
-138 45 -62 82 -115 82 -118 0 -2 -15 -4 -34 -4 -30 0 -34 -4 -40 -31 -8 -41
-8 -458 1 -527 l6 -52 230 2 230 3 12 55 c6 30 19 72 28 94 9 21 17 40 17 42
0 2 -74 4 -165 4 -186 0 -206 -5 -297 -82 -53 -43 -66 -31 -23 20 23 28 25 37
25 137 l0 107 -27 -6 -28 -6 30 25 c73 60 62 59 750 65 l629 5 7 25 7 25 1
-26 c1 -15 7 -29 14 -32 7 -3 42 -48 77 -101 36 -53 68 -96 72 -96 5 0 8 65 8
145 l0 145 30 0 30 0 2 73 c4 140 4 152 8 162 2 6 6 -44 10 -110 l5 -120 29
-5 29 -5 -1 -97 c-1 -55 2 -98 7 -98 5 0 30 29 55 65 44 63 44 65 21 65 -35 0
-37 13 -7 49 26 31 31 33 80 30 35 -3 53 0 57 8 5 15 -16 30 -97 69 -32 16
-58 31 -58 34 0 6 158 92 407 221 l121 63 -31 44 c-126 176 -349 355 -582 467
-232 111 -383 146 -660 150 -110 2 -213 1 -230 -1z m1039 -1712 c14 -21 40
-52 57 -68 31 -28 31 -28 19 -4 -8 17 -1 12 21 -14 46 -54 387 -490 385 -493
-1 -1 -77 -3 -170 -3 -159 -2 -169 -1 -182 19 -8 11 -61 78 -117 148 -128 159
-150 190 -143 202 8 13 -4 41 -18 41 -6 0 -20 -13 -30 -27 -17 -23 -17 -26 -3
-20 9 3 17 3 17 -1 0 -4 -62 -86 -138 -182 l-139 -175 -243 -3 c-159 -1 -241
1 -235 7 6 6 53 11 105 13 l95 3 3 35 c3 33 9 38 80 76 166 88 330 212 467
350 72 73 133 133 136 133 4 1 18 -16 33 -37z m-1014 -8 c0 -20 5 -24 32 -24
42 0 25 -18 -28 -30 -30 -7 -42 -5 -55 6 -14 12 -18 13 -22 2 -4 -8 -6 -7 -6
5 -1 12 7 17 29 17 27 0 30 3 30 31 0 17 4 28 10 24 6 -3 10 -17 10 -31z
m-643 -430 c-3 -3 -12 -4 -19 -1 -8 3 -5 6 6 6 11 1 17 -2 13 -5z m486 -4
c-12 -5 -50 -11 -85 -14 l-63 -5 65 13 c36 7 74 13 85 14 18 1 18 0 -2 -8z
m-440 -7 c-7 -2 -19 -2 -25 0 -7 3 -2 5 12 5 14 0 19 -2 13 -5z m65 -10 c-10
-2 -26 -2 -35 0 -10 3 -2 5 17 5 19 0 27 -2 18 -5z m170 -10 c-26 -2 -71 -2
-100 0 -29 2 -8 3 47 3 55 0 79 -1 53 -3z"/>
<path d="M3309 3995 c33 -47 37 -94 11 -144 -32 -64 -57 -71 -269 -71 -176 0
-180 0 -209 -24 -38 -32 -87 -127 -101 -195 -10 -46 -9 -76 2 -60 1 2 21 26
42 53 22 28 45 56 51 64 9 13 14 13 35 0 13 -9 57 -35 97 -58 71 -40 77 -42
159 -42 47 0 89 4 93 9 5 4 36 63 70 130 41 82 59 129 55 142 -3 11 -1 38 6
61 15 51 1 106 -37 141 l-27 24 22 -30z m-126 -295 c-3 -11 -7 -20 -9 -20 -2
0 -4 9 -4 20 0 11 4 20 9 20 5 0 7 -9 4 -20z"/>
<path d="M3180 3050 c-9 -6 -10 -10 -3 -10 6 0 15 5 18 10 8 12 4 12 -15 0z"/>
<path d="M3140 3030 c-9 -6 -10 -10 -3 -10 6 0 15 5 18 10 8 12 4 12 -15 0z"/>
<path d="M3432 1163 c-23 -54 -42 -104 -44 -112 -2 -10 16 -13 85 -13 48 -1
90 1 92 4 6 5 -71 198 -84 211 -4 4 -26 -36 -49 -90z"/>
<path d="M4085 1173 c-50 -13 -85 -70 -85 -138 0 -108 93 -167 178 -115 56 34
77 115 48 185 -22 52 -85 83 -141 68z"/>
<path d="M4643 1166 c-89 -40 -84 -218 7 -256 41 -17 91 -5 125 30 23 24 29
41 32 87 4 64 -8 96 -47 124 -35 26 -79 32 -117 15z"/>
</g>
</svg>
